<svg width="17" height="16" viewBox="0 0 17 16" fill="none" xmlns="http://www.w3.org/2000/svg">
<path d="M12.9524 16H4.04762V5.6L9.71429 0L10.7262 1C10.8206 1.09333 10.8982 1.22 10.9589 1.38C11.0196 1.54 11.05 1.69333 11.05 1.84V2.12L10.1595 5.6H15.381C15.8127 5.6 16.1905 5.76 16.5143 6.08C16.8381 6.4 17 6.77333 17 7.2V8.8C17 8.89333 16.9865 8.99333 16.9595 9.1C16.9325 9.20667 16.9056 9.30667 16.8786 9.4L14.45 15.04C14.3286 15.3067 14.1262 15.5333 13.8429 15.72C13.5595 15.9067 13.2627 16 12.9524 16ZM5.66667 14.4H12.9524L15.381 8.8V7.2H8.09524L9.1881 2.8L5.66667 6.28V14.4ZM4.04762 5.6V7.2H1.61905V14.4H4.04762V16H0V5.6H4.04762Z" fill="#1C1B1F"/>
</svg>
